<!DOCTYPE svg PUBLIC "-//W3C//DTD SVG 1.1//EN" "http://www.w3.org/Graphics/SVG/1.1/DTD/svg11.dtd">
<!-- Uploaded to: SVG Repo, www.svgrepo.com, Transformed by: SVG Repo Mixer Tools -->
<svg width="800px" height="800px" viewBox="0 0 64 64" xmlns="http://www.w3.org/2000/svg" fill="#000000">
<g id="SVGRepo_bgCarrier" stroke-width="0"/>
<g id="SVGRepo_tracerCarrier" stroke-linecap="round" stroke-linejoin="round"/>
<g id="SVGRepo_iconCarrier"> <g id="a"/> <g id="b"/> <g id="c"/> <g id="d"/> <g id="e"/> <g id="f"/> <g id="g"/> <g id="h"/> <g id="i"/> <g id="j"/> <g id="k"/> <g id="l"/> <g id="m"/> <g id="n"/> <g id="o"/> <g id="p"/> <g id="q"/> <g id="r"/> <g id="s"/> <g id="t"> <path d="M43,37.41s-.09,.02-.13,.04l-8.36,3.79-1.81,8.46,1.81,8.88c.18-.16,.32-.35,.42-.57l8.5-20.02c.13-.31-.13-.62-.43-.58Z" fill="#2cc32f" id="u"/> <path d="M34.52,28.9h-5.04v14.7l-1.28,15.07c.26,.2,.57,.32,.9,.33h4.34c.4,0,.78-.16,1.08-.43v-11.42c0-6.09,0-12.17,0-18.26h0Z" fill="#2cc32f" id="v"/> <path d="M28.2,58.67l6.32-11.52-5.03-3.56-8.46-5.98c-.27-.19-.63,.08-.52,.39l7.15,19.97c.11,.28,.3,.51,.54,.68Z" fill="#2cc32f" id="w"/> <path d="M35.08,8.18l-2.22-1.67c-.51-.38-1.21-.38-1.72,0l-2.22,1.67,3.08,22.07,3.08-22.07Z" fill="#fff700" id="x"/> <path d="M27.83,5c-.11,.01-.22,.05-.31,.12l-7.24,4.99c-.54,.37-.81,1.03-.7,1.67l2.16,11.98c.12,.67,.54,1.25,1.14,1.57l6.6,3.56h0l2.52,1.36h0l-3.45-24.68c-.05-.35-.37-.6-.72-.57Z" fill="#f4f0d7" id="y"/> <path d="M36.17,5c-.35-.03-.67,.22-.72,.57l-.08,.58-.28,2.03-.22,1.56-2.86,20.51,5.28-2.85,3.84-2.07c.6-.32,1.02-.9,1.14-1.57l2.16-11.98c.12-.65-.16-1.3-.7-1.67l-7.24-4.99c-.09-.06-.2-.1-.31-.12Z" fill="#f4f0d7" id="a`"/> <path d="M35.08,8.18l-2.22-1.67c-.51-.38-1.21-.38-1.72,0l-2.22,1.67,3.08,22.07,3.08-22.07Z" fill="#fff700" id="aa"/> <path d="M41.59,26.22c.87-.47,1.47-1.3,1.65-2.27l2.16-11.98c.19-1.03-.25-2.08-1.11-2.67l-7.24-4.99c-.37-.25-.81-.35-1.25-.27-.44,.08-.82,.33-1.07,.69-.15,.21-.24,.46-.28,.71l-.13,.93-.86-.65c-.86-.65-2.06-.65-2.92,0h0l-.86,.65-.13-.93c-.13-.91-.97-1.54-1.88-1.42-.25,.04-.5,.13-.71,.28l-7.24,4.99c-.86,.59-1.3,1.64-1.11,2.67l2.16,11.98c.18,.98,.78,1.8,1.65,2.28l6.08,3.28v12.17l-6.88-4.86c-.6-.43-1.44-.28-1.87,.32-.25,.36-.31,.81-.17,1.22l7.15,19.97c.36,1,1.32,1.68,2.38,1.68h4.34c1.06,0,2.01-.63,2.42-1.6l8.5-20.02c.15-.35,.15-.74,0-1.09-.14-.35-.41-.63-.76-.77-.37-.16-.78-.15-1.14,.01l-6.94,3.15v-10.19l6.08-3.28ZM31.74,7.31c.15-.12,.37-.12,.52,0l1.75,1.31-2.01,14.23-2.01-14.24,1.75-1.31Zm1.78,37.91l-3.03-2.14v-12.51l1.04,.56c.15,.08,.31,.12,.47,.12s.33-.04,.47-.12l1.04-.56v14.65Zm-10.16-20.77c-.33-.18-.56-.5-.63-.87l-2.16-11.98c-.05-.26,.06-.52,.28-.67l6.79-4.68,3.13,22.21-7.41-4Zm-1.2,15.19l11.06,7.81-5,9.11-6.06-16.93Zm7.55,18.36l3.81-6.94v6.89s-.04,.05-.08,.05h-3.73Zm12.22-19.03l-6.42,15.12v-12.21l6.42-2.91Zm-8.7-10.52l3.13-22.21,6.79,4.68c.22,.15,.33,.41,.28,.67l-2.16,11.98c-.07,.37-.3,.69-.63,.87l-7.42,4Z"/> </g> <g id="ab"/> <g id="ac"/> <g id="ad"/> <g id="ae"/> <g id="af"/> <g id="ag"/> <g id="ah"/> <g id="ai"/> <g id="aj"/> <g id="ak"/> <g id="al"/> <g id="am"/> <g id="an"/> <g id="ao"/> <g id="ap"/> <g id="aq"/> <g id="ar"/> <g id="as"/> <g id="at"/> <g id="au"/> <g id="av"/> <g id="aw"/> <g id="ax"/> <g id="ay"/> <g id="b`"/> <g id="ba"/> <g id="bb"/> <g id="bc"/> <g id="bd"/> <g id="be"/> </g>
</svg>