<?xml version="1.0" encoding="iso-8859-1"?>
<!-- Uploaded to: SVG Repo, www.svgrepo.com, Generator: SVG Repo Mixer Tools -->
<svg fill="#000000" height="800px" width="800px" version="1.1" id="Layer_1" xmlns="http://www.w3.org/2000/svg" xmlns:xlink="http://www.w3.org/1999/xlink" 
	 viewBox="0 0 491.52 491.52" xml:space="preserve">
<g>
	<g>
		<g>
			<path d="M236.597,386.959l-52.285-26.133V491.51h122.88V360.827l-52.265,26.133C249.151,389.847,242.352,389.847,236.597,386.959
				z"/>
			<path d="M491.336,162.98c-0.082-2.314-0.471-4.628-1.372-6.84c-0.041-0.102-0.041-0.225-0.102-0.328v-0.041l-61.44-143.36
				C425.206,4.874,417.792,0,409.6,0H81.92c-8.192,0-15.606,4.874-18.821,12.411l-61.44,143.36c0,0.021,0,0.021-0.02,0.041
				c-0.041,0.102-0.041,0.205-0.082,0.307c-0.901,2.212-1.29,4.547-1.393,6.881C0.143,163.308,0,163.553,0,163.84v307.2
				c0,11.305,9.175,20.48,20.48,20.48h122.88V327.68c0-7.107,3.686-13.681,9.708-17.428c6.042-3.727,13.578-4.055,19.927-0.901
				l72.765,36.393l72.765-36.393c6.328-3.154,13.885-2.826,19.927,0.901c6.021,3.748,9.707,10.322,9.707,17.428v163.84h122.88
				c11.326,0,20.48-9.175,20.48-20.48v-307.2C491.52,163.533,491.356,163.287,491.336,162.98z M51.528,143.36l43.889-102.4h300.687
				l43.868,102.4H51.528z"/>
		</g>
	</g>
</g>
</svg>