<?xml version="1.0" encoding="iso-8859-1"?>
<!-- Uploaded to: SVG Repo, www.svgrepo.com, Generator: SVG Repo Mixer Tools -->
<svg version="1.1" id="Layer_1" xmlns="http://www.w3.org/2000/svg" xmlns:xlink="http://www.w3.org/1999/xlink" 
	 viewBox="0 0 512 512" xml:space="preserve">
<path style="fill:#9FC7D1;" d="M384,138.584c0,38.776-17.904,81.072-40,118.56v236.248l152-43.424V50.688L377.344,85.592
	C381.664,101.28,384,118.896,384,138.584z M360,272h80v16h-80V272z M360,336h32v16h-32V336z M360,368h24v16h-24V368z M480,416H360
	v-16h120V416z M400,384v-16h40v16H400z M480,384h-24v-16h24V384z M480,352h-72v-16h72V352z M480,320H360v-16h120V320z M480,288h-24
	v-16h24V288z M400,192c0-4.416,3.584-8,8-8h64c4.416,0,8,3.584,8,8v48c0,4.416-3.584,8-8,8h-64c-4.416,0-8-3.584-8-8V192z"/>
<g>
	<rect x="416" y="200" style="fill:#FFFFFF;" width="48" height="32"/>
	<rect x="48" y="176" style="fill:#FFFFFF;" width="24" height="24"/>
</g>
<g>
	<path style="fill:#9FC7D1;" d="M147.32,54.56L16,93.952v399.44l152-43.424V257.144c-22.096-37.488-40-79.784-40-118.56
		C128,104.584,134.616,76.432,147.32,54.56z M48,456H32v-16h16V456z M48,424H32v-16h16V424z M48,392H32v-16h16V392z M48,360H32v-16
		h16V360z M48,328H32v-16h16V328z M48,296H32v-16h16V296z M80,456H64v-16h16V456z M80,424H64v-16h16V424z M80,392H64v-16h16V392z
		 M80,360H64v-16h16V360z M80,328H64v-16h16V328z M80,296H64v-16h16V296z M112,424H96v-16h16V424z M112,392H96v-16h16V392z M112,360
		H96v-16h16V360z M112,328H96v-16h16V328z M112,296H96v-16h16V296z M120,208v32h-16v-24H48v24H32V128h16v32h32v-32h16v16h16v16H96v8
		c0,4.416-3.584,8-8,8v24h16v-16h16V208z M144,392h-16v-16h16V392z M144,360h-16v-16h16V360z M144,328h-16v-16h16V328z M144,280v16
		h-16v-16H144z"/>
	<path style="fill:#9FC7D1;" d="M312,375.944c0,18.24-24.072,32-56,32s-56-13.76-56-32c0-14.504,13.12-26.144,32.28-30.296
		c-12.856-14.904-30.832-37.112-48.28-63.12V450.04l144,43.2V282.536c-17.448,26.008-35.424,48.216-48.28,63.12
		C298.88,349.8,312,361.44,312,375.944z"/>
</g>
<path style="fill:#FFFFFF;" d="M256,391.944c24.416,0,40-9.48,40-16c0-7.304-11.648-15.008-29.176-15.792
	c-2.728,2.96-4.544,4.864-5.072,5.408c-1.504,1.56-3.584,2.44-5.752,2.44s-4.248-0.88-5.752-2.44
	c-0.528-0.544-2.344-2.448-5.072-5.408C227.648,360.936,216,368.64,216,375.944C216,382.472,231.584,391.944,256,391.944z"/>
<path style="fill:#E87B5A;" d="M271.984,113.792l-11.28,7.52c-2.688,1.792-6.192,1.792-8.872,0l-11.28-7.52
	c-1.792-1.192-3.848-1.784-5.896-1.784c-2.76,0-5.496,1.056-7.544,3.112c-4.152,4.152-4.152,10.912,0,15.064l29.152,29.16
	l29.16-29.16c2.008-2.008,3.12-4.688,3.12-7.528s-1.112-5.52-3.12-7.528C281.848,111.536,276.2,110.992,271.984,113.792z"/>
<path style="fill:#FFFFFF;" d="M256,56c-39.696,0-72,32.304-72,72s32.304,72,72,72s72-32.304,72-72S295.696,56,256,56z
	 M296.744,141.496l-34.816,34.816c-1.56,1.56-3.608,2.344-5.656,2.344s-4.096-0.784-5.656-2.344l-34.808-34.816
	c-10.392-10.392-10.384-27.304,0-37.688c8.952-8.952,23.096-10.352,33.632-3.336l6.84,4.56l6.84-4.56
	c10.528-7.024,24.672-5.624,33.632,3.336c5.032,5.032,7.8,11.72,7.8,18.84C304.552,129.768,301.776,136.464,296.744,141.496z"/>
<path style="fill:#E87B5A;" d="M256,16c-51.096,0-112,21.264-112,122.584c0,80.864,88.344,183.6,112,209.656
	c23.64-26.056,112-128.848,112-209.656C368,82.664,348.568,16,256,16z M256,216c-48.52,0-88-39.48-88-88s39.48-88,88-88
	s88,39.48,88,88S304.52,216,256,216z"/>
<g>
	<path style="fill:#3C4A53;" d="M256,40c-48.52,0-88,39.48-88,88s39.48,88,88,88s88-39.48,88-88S304.52,40,256,40z M256,200
		c-39.696,0-72-32.304-72-72s32.304-72,72-72s72,32.304,72,72S295.696,200,256,200z"/>
	<path style="fill:#3C4A53;" d="M508.792,33.592c-2.016-1.512-4.632-1.984-7.048-1.272L372.28,70.4C353.904,24.6,314.232,0,256,0
		c-39.416,0-70.272,11.344-91.864,32.808L5.704,80.336C2.32,81.352,0,84.472,0,88v416c0,2.504,1.176,4.872,3.184,6.392
		C4.584,511.448,6.28,512,8,512c0.736,0,1.48-0.104,2.2-0.304l165.752-47.36l157.752,47.328l0.008-0.032
		c0.744,0.216,1.512,0.368,2.288,0.368c0.736,0,1.48-0.104,2.2-0.304l168-48c3.432-0.984,5.8-4.128,5.8-7.696V40
		C512,37.48,510.816,35.104,508.792,33.592z M168,449.968L16,493.392V93.952L147.32,54.56C134.616,76.432,128,104.584,128,138.584
		c0,38.776,17.904,81.072,40,118.56V449.968z M328,493.248l-144-43.2V282.536c17.44,26.008,35.424,48.216,48.28,63.12
		C213.12,349.8,200,361.44,200,375.944c0,18.24,24.072,32,56,32s56-13.76,56-32c0-14.504-13.12-26.144-32.28-30.296
		c12.856-14.904,30.832-37.112,48.28-63.12V493.248z M245.176,360.152c2.728,2.96,4.544,4.864,5.072,5.408
		c1.504,1.56,3.584,2.44,5.752,2.44s4.248-0.88,5.752-2.44c0.52-0.544,2.344-2.448,5.072-5.408
		C284.352,360.936,296,368.64,296,375.944c0,6.52-15.584,16-40,16s-40-9.48-40-16C216,368.64,227.648,360.936,245.176,360.152z
		 M256,348.232c-23.656-26.048-112-128.784-112-209.656C144,37.264,204.904,16,256,16c92.568,0,112,66.664,112,122.584
		C368,219.392,279.64,322.176,256,348.232z M496,449.968l-152,43.424V257.144c22.096-37.488,40-79.784,40-118.56
		c0-19.688-2.336-37.296-6.656-52.992L496,50.688V449.968z"/>
	<path style="fill:#3C4A53;" d="M263.112,100.48l-6.84,4.56l-6.84-4.56c-10.528-7.016-24.672-5.624-33.632,3.336
		c-10.384,10.384-10.392,27.296,0,37.688l34.808,34.816c1.56,1.56,3.608,2.344,5.656,2.344s4.096-0.784,5.656-2.344l34.816-34.816
		c5.032-5.032,7.808-11.728,7.808-18.848s-2.776-13.816-7.8-18.84C287.792,94.848,273.64,93.448,263.112,100.48z M285.432,130.184
		l-29.16,29.16l-29.152-29.16c-4.152-4.152-4.16-10.912,0-15.064c2.056-2.056,4.792-3.112,7.544-3.112
		c2.04,0,4.104,0.584,5.896,1.784l11.28,7.52c2.688,1.792,6.184,1.792,8.872,0l11.28-7.52c4.216-2.8,9.864-2.248,13.44,1.336
		c2.008,2.008,3.12,4.68,3.12,7.528C288.552,125.496,287.44,128.168,285.432,130.184z"/>
	<rect x="128" y="312" style="fill:#3C4A53;" width="16" height="16"/>
	<rect x="96" y="312" style="fill:#3C4A53;" width="16" height="16"/>
	<rect x="64" y="312" style="fill:#3C4A53;" width="16" height="16"/>
	<rect x="128" y="280" style="fill:#3C4A53;" width="16" height="16"/>
	<rect x="96" y="280" style="fill:#3C4A53;" width="16" height="16"/>
	<rect x="64" y="280" style="fill:#3C4A53;" width="16" height="16"/>
	<rect x="32" y="312" style="fill:#3C4A53;" width="16" height="16"/>
	<rect x="32" y="280" style="fill:#3C4A53;" width="16" height="16"/>
	<rect x="128" y="376" style="fill:#3C4A53;" width="16" height="16"/>
	<rect x="96" y="376" style="fill:#3C4A53;" width="16" height="16"/>
	<rect x="64" y="376" style="fill:#3C4A53;" width="16" height="16"/>
	<rect x="128" y="344" style="fill:#3C4A53;" width="16" height="16"/>
	<rect x="96" y="344" style="fill:#3C4A53;" width="16" height="16"/>
	<rect x="64" y="344" style="fill:#3C4A53;" width="16" height="16"/>
	<rect x="32" y="376" style="fill:#3C4A53;" width="16" height="16"/>
	<rect x="96" y="408" style="fill:#3C4A53;" width="16" height="16"/>
	<rect x="64" y="408" style="fill:#3C4A53;" width="16" height="16"/>
	<rect x="32" y="408" style="fill:#3C4A53;" width="16" height="16"/>
	<rect x="64" y="440" style="fill:#3C4A53;" width="16" height="16"/>
	<rect x="32" y="440" style="fill:#3C4A53;" width="16" height="16"/>
	<rect x="32" y="344" style="fill:#3C4A53;" width="16" height="16"/>
	<path style="fill:#3C4A53;" d="M104,200H88v-24c4.416,0,8-3.584,8-8v-8h16v-16H96v-16H80v32H48v-32H32v112h16v-24h56v24h16v-32v-24
		h-16V200z M72,200H48v-24h24V200z"/>
	<path style="fill:#3C4A53;" d="M408,248h64c4.416,0,8-3.584,8-8v-48c0-4.416-3.584-8-8-8h-64c-4.416,0-8,3.584-8,8v48
		C400,244.416,403.584,248,408,248z M416,200h48v32h-48V200z"/>
	<rect x="360" y="272" style="fill:#3C4A53;" width="80" height="16"/>
	<rect x="456" y="272" style="fill:#3C4A53;" width="24" height="16"/>
	<rect x="360" y="304" style="fill:#3C4A53;" width="120" height="16"/>
	<rect x="360" y="336" style="fill:#3C4A53;" width="32" height="16"/>
	<rect x="408" y="336" style="fill:#3C4A53;" width="72" height="16"/>
	<rect x="360" y="368" style="fill:#3C4A53;" width="24" height="16"/>
	<rect x="400" y="368" style="fill:#3C4A53;" width="40" height="16"/>
	<rect x="456" y="368" style="fill:#3C4A53;" width="24" height="16"/>
	<rect x="360" y="400" style="fill:#3C4A53;" width="120" height="16"/>
</g>
</svg>