<!DOCTYPE svg PUBLIC "-//W3C//DTD SVG 1.1//EN" "http://www.w3.org/Graphics/SVG/1.1/DTD/svg11.dtd">
<!-- Uploaded to: SVG Repo, www.svgrepo.com, Transformed by: SVG Repo Mixer Tools -->
<svg fill="#e90c0c" version="1.1" id="Capa_1" xmlns="http://www.w3.org/2000/svg" xmlns:xlink="http://www.w3.org/1999/xlink" width="800px" height="800px" viewBox="0 0 495.249 495.249" xml:space="preserve" stroke="#e90c0c">
<g id="SVGRepo_bgCarrier" stroke-width="0"/>
<g id="SVGRepo_tracerCarrier" stroke-linecap="round" stroke-linejoin="round"/>
<g id="SVGRepo_iconCarrier"> <g> <g id="Capa_1_6_"> <g> <path d="M2.72,224.444c0.007,0.007,0.014,0.007,0.022,0.016c0.542,0.392,1.107,0.737,1.687,1.031 c3.357,1.701,6.729,3.395,10.117,5.036c0.015,0.007,0.023,0.007,0.03,0.016c0.255,0.098,0.511,0.203,0.769,0.301 c6.006,2.349,11.999,4.794,17.78,7.641c0.068,0.029,0.135,0.06,0.203,0.091c6.444,2.965,12.992,5.773,17.982,11.162 c0.497,0.535,0.986,1.062,1.483,1.597c0.007,0.007,0.014,0.022,0.03,0.029c7.73,6.903,14.197,15.078,21.378,22.695 c7.347,7.784,16.621,9.816,26.542,7.543c8.431-1.927,16.56-5.187,24.826-7.852c-0.023-0.271-0.045-0.534-0.068-0.806 c-6.09-2.49-12.345-4.659-18.231-7.572c-15.189-7.517-29.229-16.972-41.444-28.759c-5.49-5.298-10.593-10.997-15.249-17.042 c-4.711-6.117-8.55-12.729-12.862-19.108c-1.173-1.739-2.408-3.854-5.126-2.951c-7.866,2.597-15.672,5.337-22.537,10.14 c-3.794,2.65-7.572,5.216-9.733,9.567c-0.007,0.007-0.007,0.016-0.007,0.023c-0.422,1.408-0.445,2.897,0.105,4.253 C0.897,222.66,1.748,223.624,2.72,224.444z"/> <path d="M42.93,153.295c0.429,0.21,0.911,0.399,1.385,0.444c4.125,0.414,8.272,0.663,12.382,1.212 c3.718,0.504,7.407,1.257,11.081,2.032c2.566,0.55,5.081,1.333,7.956,2.1c-0.113-1.031-0.083-1.513-0.226-1.927 c-3.825-11.076-8.45-21.96-10.978-33.438c-0.67-3.04-1.167-6.339,0.13-9.169c1.649-3.595,5.872-5.438,9.829-5.435 c3.836,0.004,7.159,2.647,10.898,2.544c3.765-0.104,7.218-3.124,9.072-6.188c2.493-4.121,3.383-9.008,5.453-13.356 c2.67-5.606,7.458-10.075,13.063-12.679c7.129-3.312,11.646-1.777,18.916-1.198c2.85,0.227,5.85-0.26,8.18-1.918 c9.914-7.056-2.826-12.184-8.44-14.305c-9.438-3.567-20.186-3.206-29.677-0.036c-12.716,4.247-23.45,13.033-32.604,22.827 c-9.154,9.794-17.011,20.729-25.984,30.691c-3.356,3.727-6.915,7.381-9.212,11.839C29.342,136.676,33.529,148.607,42.93,153.295z "/> <path d="M124.88,87.514c-6.759,0.053-13,2.372-16.899,7.813c-4.434,6.195-6.052,7.956,0.211,13.64 c2.221,2.002,4.757,3.659,7.143,5.473c-0.061,0.158-0.128,0.315-0.196,0.474c-4.698-1.046-9.394-2.093-14.309-3.177 c-1.091,1.324-2.431,2.965-4.034,4.915c9.469,2.454,17.922,6.202,27.994,7.716c-1.084-2.642-1.708-4.434-2.529-6.134 c-2.438-5.089-3.221-10.162,0.693-14.814c1.761-2.093,3.883-4.086,6.239-5.412c4.84-2.717,9.951-4.96,15.295-7.565 c-1-0.505-1.881-1.023-2.808-1.408C136.247,86.799,130.519,87.477,124.88,87.514z"/> <path d="M176.721,94.033c-0.014-0.007-0.022-0.016-0.037-0.016c-2.78-0.002-5.542,0.496-8.373,0.533 c-3.333,0.044-6.665-0.201-9.996-0.042c-9.292,0.444-20.452,3.901-27.708,9.933c-1.977,1.644-3.613,3.82-4.13,6.339 c-0.672,3.276,0.691,6.771,3.067,9.126c4.995,4.952,13.15,5.044,19.645,4.003c1.969-0.315,4.052-0.894,5.309-2.442 c1.419-1.748,1.345-4.462,0.012-6.277c-1.333-1.814-3.729-2.701-5.965-2.437c-3.655,0.43-5.466,3.209-7.378,5.966 c-0.518-1.227-0.345-2.666,0.223-3.869c0.568-1.204,1.495-2.202,2.489-3.088c2.622-2.338,5.817-4.028,9.227-4.883 c2.352-0.589,4.982-0.746,7.071,0.483c1.568,0.922,2.668,2.598,2.892,4.402c0.28,2.256-1.131,4.647-2.093,6.573 c-0.007,0.016-0.007,0.022-0.007,0.03c-0.03,1.062,0.76,1.249,1.762,1.077c0.007,0,0.022-0.007,0.045-0.016 c0.007,0.007,0.016-0.007,0.022-0.007c4.06-1.542,7.941-3.512,11.889-5.308c2.622-1.193,9.153-2.603,6.436-6.848 c-0.514-0.803-1.226-1.456-1.836-2.188c-1.259-1.511-2.053-3.389-2.324-5.333c-0.089-0.645,0.123-1.797,0.239-2.911 C177.327,95.617,177.34,94.445,176.721,94.033z"/> <path d="M101.327,167.869c-0.512,2.491-0.806,4.689,2.025,6.594c4.652,3.139,8.958,6.819,13.24,10.478 c2.929,2.5,3.463,2.326,6.067-0.504c4.088-4.433,8.416-8.686,12.939-12.676c5.457-4.803,11.418-9.04,16.793-13.925 c4.328-3.922,8.175-8.394,12.126-12.713c6.39-7.008,11.727-14.745,15.574-23.439c0.862-1.948,0.812-4.151,1.003-6.237 c-0.156,1.698-9.172,5.459-10.729,6.213c-3.938,1.905-8.024,3.504-12.203,4.798c-8.375,2.59-17.126,3.944-25.89,4.062 c-18.314,0.248-32.94-5.502-48.62-13.911c-3.38-1.814-8.634-0.263-9.921,2.995c-1.302,3.312-1.708,6.805-0.572,10.268 c1.513,4.606,3.154,9.161,4.727,13.737c2.041,5.962,4.05,11.939,6.112,17.893c0.181,0.52,0.489,1.144,0.934,1.408 c3.749,2.213,7.542,4.358,11.683,6.73c3.093-13.519-2.74-24.08-9.552-34.498c3.824,2.416,7.369,4.953,10.695,7.753 c4.57,3.854,6.609,8.935,5.842,14.859C103.157,161.162,102.013,164.481,101.327,167.869z M84.142,124.278 c1.919,0.76,4.013,1.249,5.721,2.34c9.07,5.781,18.518,10.478,29.033,13.233c9.455,2.484,18.879,2.71,28.408,1.701 c3.981-0.422,7.889-1.536,12.39-2.454c-2.168,5.284-6.337,7.761-10.357,9.312c-5.495,2.13-11.585,4.004-17.358,3.824 c-9.793-0.301-19.127-2.876-26.775-10.125C98.619,135.862,91.211,130.472,84.142,124.278z"/> <path d="M129.486,191.117c0.061-0.046,0.119-0.094,0.178-0.144c1.312-1.091,2.265-2.784,3.347-4.091 c4.1-4.96,8.728-9.854,14.002-13.578c4.648-3.281,10.465-5.137,15.589-7.735c11.022-5.587,21.733-12.686,28.545-23.252 c4.891-7.588,7.44-16.449,9.136-25.315c0.879-4.59,1.531-9.421,0.086-13.866c-1.362-4.182-11.019-12.95-15.279-7.612 c-2.735,3.427,1.865,10.333,2.145,14.027c0.551,7.298-1.229,14.733-4.499,21.242c-5.176,10.299-13.682,18.514-22.492,25.945 c-6.633,5.594-13.551,10.87-19.829,16.875c-5.428,5.191-12.547,10.99-13.511,18.959 C126.961,192.146,129.107,191.41,129.486,191.117z"/> <path d="M134.252,198.241c9.968,5.232,20.219,9.882,30.511,14.487c3.398,1.521,7.165,2.692,10.876,2.986 c3.562,0.283,7.074-0.24,10.163-2.034c4.297-2.496,7.001-7.03,8.896-11.624c3.015-7.306,4.388-15.264,4.122-23.157 c-0.19-5.639-0.846-17.937-5.747-21.818c-2.167-1.715-2.849-0.021-5.11,1.652c-8.45,6.25-18.446,9.891-27.912,14.259 C156.095,174.818,125.336,193.588,134.252,198.241z"/> <path d="M52.354,173.826c7.591,1.715,15.117,3.848,22.306,6.857c3.621,1.516,7.15,3.253,10.524,5.262 c3.304,1.966,5.757,4.536,8.631,7.057c0.543,0.476,1.651,0.966,0.811,1.572c-0.443,0.32-5.684-2.494-6.423-2.799 c-2.249-0.931-4.515-1.818-6.797-2.662c-4.565-1.688-9.194-3.2-13.875-4.533c-9.02-2.569-18.121-4.19-27.363-5.594 c-1.665-0.252-5.141-0.16-6.525-1.265c0.075,0.452,0.091,0.715,0.166,0.911c0.014,0.03,0.03,0.06,0.045,0.091 c4.174,8.335,10.161,15.858,15.908,23.12c5.624,7.106,11.639,13.904,18.005,20.355c6.495,6.583,13.355,12.804,20.54,18.626 c3.629,2.941,7.342,5.78,11.131,8.514c3.615,2.606,7.322,4.646,11.075,6.955c7.813,4.803,16.311,8.129,25.164,10.493 c19.387,5.196,48.285-2.615,58.31-21.429c2.221-4.169,4.496-16.316-0.641-19.876c-0.619-0.429-1.345-0.733-2.192-0.883 c-39.101-6.949-70.168-27.802-102.539-49.709c-3.876-2.258-7.835-4.37-11.9-6.289c-8.618-4.07-17.771-7.146-27.231-8.465 c-8.986-1.252-18.155-1.291-26.834,1.714c-3.128,1.083-5.115,2.121-7.195,4.623c5.708,2.001,12.303,2.602,18.253,3.691 C39.937,171.303,46.173,172.43,52.354,173.826z"/> <path d="M278.568,176.961c-4.269-6.18-10.11-10.697-15.906-15.295c-5.471-4.341-17.371-13.068-24.458-8.652 c-3.415,2.129-5.513,5.795-7.47,9.312c-2.737,4.915-29.799,57.202-32.815,55.721c9.613,4.757,10.298,13.023,7.316,22.506 c0.738-0.098,1.032-0.082,1.272-0.181c10.921-4.381,19.075-12.615,27.852-20c4.675-3.938,9.401-7.836,14.347-11.412 c10.026-7.234,21.167-12.27,32.971-15.897c4.223-1.295,5.193-3.764,2.867-7.558C282.737,182.547,280.547,179.822,278.568,176.961 z"/> <path d="M155.824,83.233c5.332,0.182,12.649-0.345,13.622-0.58c6.652-1.613,12.206-5.503,19.081-6.597 c8.01-1.273,16.217-0.458,23.288,3.741c6.262,3.719,12.405,7.655,18.57,11.532c0.603,0.377,1.009,1.039,2.123,2.221 c-2.823-0.512-4.863-0.617-6.714-1.272c-5.661-2.009-11.133-4.659-16.917-6.204c-3.564-0.949-7.403-0.221-11.029-0.162 c0.363,1.843,1.456,2.558,2.753,3.902c1.506,1.56,2.849,3.277,4.005,5.111c2.314,3.667,3.887,7.807,4.538,12.096 c0.693,4.565,0.336,9.275-0.972,13.701c-1.374,4.643-4.038,8.736-5.868,13.196c-1.399,3.41-2.835,6.812-3.926,10.32 c-1.973,6.3,0.215,12.044,2.842,17.659c0.482,1.023,1.092,1.995,1.679,3.057c1.662-4.774,2.873-9.321,5.346-13.805 c2.469-4.478,5.395-8.679,8.182-12.959c4.591-7.052,8.913-14.64,9.762-23.011c0.335-3.296,0.99-7.065,5.078-7.288 c1.118,3.583,2.148,7.146,2.148,10.937c0.023,0.144,0.03,0.294,0.045,0.437c0.936,8.88-6.901,15.903-11.449,22.604 c-5.107,7.527-9.476,15.591-12.579,24.155c-0.434,1.198-0.843,2.405-1.226,3.619c-1.588,5.044-2.718,10.22-3.613,15.428 c-0.457,2.66-0.852,5.329-1.218,8.002c-0.307,2.241-1.378,5.642-0.9,7.803c0.732-0.144,1.304-1.583,1.605-2.268 c1.957-4.449,3.613-9.056,5.872-13.346c5.095-9.705,10.268-19.371,15.439-29.032c5.09-9.508,11.729-17.902,17.66-26.872 c6.095-9.218,11.293-19.574,11.454-30.624c0.162-11.051-5.94-22.795-16.441-26.241c-14.381-4.721-30.203-8.039-45.299-9.094 c-15.562-1.087-38.538-0.793-42.584,18.45C149.991,82.739,152.528,83.122,155.824,83.233z"/> <path d="M250.52,82.327c-0.029-0.09-0.063-0.174-0.094-0.263c-1.691-3.644-4.164-6.804-7.833-8.683 c-1.363-0.698-2.789-1.206-4.251-1.737c-0.354-0.069-0.711-0.134-1.078-0.187c-0.121-0.016-0.242-0.037-0.361-0.052 c1.965,0.527,3.885,1.196,5.691,2.123C246.328,75.44,248.826,78.602,250.52,82.327z"/> <path d="M495.144,186.882c0-0.006,0.001-0.013-0.004-0.021c-1.369-4.094-4.227-6.919-7.104-9.732 c-5.209-5.093-11.432-8.413-17.748-11.5c-2.184-1.067-3.383,0.398-4.499,1.565c-4.098,4.284-7.814,8.684-12.216,12.469 c-4.351,3.74-9.103,7.237-14.039,9.92c-11.579,6.29-24.01,10.393-36.994,13.409c-5.109,1.187-10.657,1.766-16.017,2.724 c-0.038,0.181-0.075,0.355-0.115,0.536c6.849,2.784,13.665,6.084,20.488,8.883c7.226,2.966,15.891,3.753,22.834-0.288 c6.526-3.8,12.565-8.499,19.511-11.994c0.014-0.002,0.021-0.012,0.027-0.016c0.453-0.292,0.9-0.581,1.354-0.874 c4.556-2.963,10.231-3.788,15.738-4.67c0.058-0.01,0.118-0.017,0.175-0.026c4.898-0.851,10.121-1.661,15.203-2.249 c0.217-0.025,0.436-0.055,0.651-0.079c0.008-0.005,0.014-0.002,0.025-0.006c2.902-0.604,5.791-1.271,8.665-1.976 c0.496-0.122,0.983-0.291,1.458-0.503c0.007-0.005,0.013-0.003,0.019-0.008c0.86-0.482,1.64-1.115,2.127-1.998 C495.25,189.425,495.363,188.153,495.144,186.882z"/> <path d="M387.905,71.854c1.875,1.312,4.409,1.88,6.864,1.933c6.266,0.134,10.251-0.662,16.133,1.899 c4.626,2.014,8.418,5.215,10.305,9.159c1.465,3.06,1.876,6.461,3.713,9.404c1.367,2.188,4.104,4.422,7.318,4.613 c3.189,0.19,6.228-1.593,9.507-1.529c3.383,0.067,6.852,1.429,7.987,4.056c0.893,2.068,0.231,4.49-0.582,6.644 c-3.072,8.129-7.668,15.842-11.841,23.437c-0.153,0.28-0.162,0.629-0.335,1.353c2.498-0.33,4.693-0.711,6.908-0.923 c3.169-0.302,6.356-0.6,9.536-0.727c3.516-0.14,7.046-0.074,10.547-0.134c0.403-0.007,0.829-0.119,1.203-0.255 c7.737-2.829,12.837-11.751,9.472-19.547c-1.477-3.418-4.364-6.256-6.859-9.053c-6.549-7.343-12.969-15.28-19.822-22.235 c-7.142-7.248-16.368-12.981-26.344-15.873c-8.236-2.387-17.096-2.914-25.483-1.204C391.199,63.877,379.92,66.266,387.905,71.854 z"/> <path d="M400.653,91.396c3.024,3.405,1.996,6.805-0.452,10.066c-0.82,1.092-1.483,2.259-2.598,3.962 c8.276-0.418,16.372-2.102,24.511-3.54c-1.231-1.421-2.261-2.614-3.101-3.576c-4.287,0.514-8.384,0.966-12.481,1.38 c-0.046-0.111-0.093-0.223-0.134-0.334c2.172-1.082,4.467-2.061,6.508-3.312c5.768-3.537,4.514-4.878,1.152-9.305 c-2.954-3.892-8.147-5.752-13.934-6.217c-4.827-0.389-9.692-1.283-14.489-0.25c-0.817,0.176-1.607,0.448-2.498,0.696 c4.385,2.241,8.603,4.157,12.554,6.341C397.613,88.372,399.291,89.864,400.653,91.396z"/> <path d="M352.468,86.981c-0.57,0.422-1.221,0.777-1.714,1.26c-2.608,2.557,2.833,4.354,4.976,5.479 c3.229,1.695,6.394,3.468,9.744,4.941c0.006,0.001,0.012,0.012,0.02,0.007c0.019,0.007,0.031,0.014,0.037,0.016 c0.84,0.224,1.513,0.161,1.576-0.542c0-0.005,0.001-0.01-0.003-0.021c-0.686-1.402-1.718-3.171-1.321-4.667 c0.318-1.197,1.373-2.208,2.775-2.661c1.868-0.605,4.1-0.224,6.066,0.409c2.849,0.917,5.459,2.354,7.536,4.165 c0.787,0.685,1.51,1.439,1.911,2.298c0.402,0.859,0.447,1.843-0.081,2.624c-1.44-2.022-2.793-4.051-5.886-4.687 c-1.891-0.39-3.999-0.029-5.266,1.06c-1.264,1.09-1.519,2.915-0.43,4.231c0.963,1.167,2.702,1.76,4.361,2.156 c5.475,1.312,12.457,1.95,17.079-1.001c2.198-1.403,3.61-3.666,3.267-5.926c-0.265-1.738-1.521-3.382-3.09-4.582 c-6.511-4.977-14.79-7.844-22.977-9.223c-2.822-0.476-5.683-0.69-8.514-1.125c-2.406-0.371-4.716-1.06-7.075-1.427 c-0.012-0.002-0.02,0.002-0.034,0.005c-0.554,0.2-0.626,1-0.605,1.848c0.02,0.776,0.117,1.589-0.005,2.019 C354.453,84.932,353.644,86.111,352.468,86.981z"/> <path d="M418.448,138.496c3.697-1.274,7.081-2.446,10.431-3.695c0.396-0.149,0.705-0.563,0.896-0.913 c2.191-4.013,4.338-8.093,6.517-12.192c1.674-3.148,3.413-6.305,5.046-9.531c1.227-2.425,1.143-4.947,0.276-7.344 c-0.854-2.359-5.248-3.597-8.255-2.434c-13.547,5.243-28.01,8.166-42.593,6.596c-7.479-0.804-14.875-2.501-21.837-5.092 c-3.476-1.293-6.845-2.807-10.062-4.541c-1.271-0.686-8.669-4.32-8.68-5.503c0.013,1.454-0.186,2.958,0.407,4.394 c2.646,6.411,6.639,12.264,11.596,17.628c3.061,3.313,6.041,6.69,9.458,9.728c4.248,3.775,9.053,7.158,13.376,10.878 c3.586,3.086,6.987,6.347,10.161,9.729c2.023,2.156,2.467,2.332,5.143,0.914c3.912-2.074,7.847-4.181,12.034-5.906 c2.546-1.05,2.451-2.594,2.198-4.348c-0.345-2.382-1.08-4.762-1.214-7.135c-0.232-4.123,1.875-7.44,6.052-9.787 c3.04-1.708,6.253-3.247,9.693-4.724C422.564,121.222,417.19,129.2,418.448,138.496z M413.097,118.891 c-6.984,4.298-15.537,5.442-23.605,4.751c-4.895-0.42-10.025-2.177-14.569-4.111c-3.322-1.414-6.713-3.476-8.19-7.257 c3.777,1.062,7.049,2.171,10.408,2.827c8.001,1.563,16.302,2.17,24.411,1.243c8.874-1.015,17.597-3.606,25.77-7.217 c1.535-0.678,3.362-0.922,5.059-1.374C425.888,111.801,419.151,115.165,413.097,118.891z"/> <path d="M348.23,79.644c-3.223-4.278-12.003,0.292-13.456,3.012c-1.544,2.89-1.347,6.387-0.942,9.725 c0.784,6.45,2.272,13.062,5.895,18.776c5.3,8.361,13.99,14.199,22.656,18.729c4.181,2.185,9.034,3.99,12.776,6.612 c4.247,2.975,7.86,6.68,11.014,10.398c0.832,0.98,1.527,2.209,2.571,3.067c0.047,0.038,0.094,0.077,0.142,0.114 c0.304,0.233,2.084,0.931,2.104,1.224c-0.262-5.471-5.937-10.03-10.211-14.008c-4.943-4.601-10.498-8.859-15.758-13.158 c-6.784-5.545-13.417-12.074-17.322-19.959c-2.348-4.742-3.283-10.214-2.291-15.171C345.909,86.497,350.298,82.389,348.23,79.644 z"/> <path d="M332.378,152.296c1.284,3.311,3.266,6.603,6.761,8.57c2.514,1.414,5.48,1.979,8.548,2.017 c3.197,0.038,6.505-0.501,9.519-1.275c9.045-2.325,23.133-3.648,27.108-7.177c3.362-2.984-14.076-16.18-20.276-19.302 c-7.425-3.74-15.918-7.199-22.791-12.292c-1.798-1.332-2.261-2.624-4.226-1.651c-4.445,2.201-5.898,10.745-6.472,14.671 C329.749,141.354,330.335,147.029,332.378,152.296z"/> <path d="M459.112,135.498c-7.997,0.333-15.972,1.813-23.672,4.001c-3.581,1.017-7.107,2.143-10.565,3.361 c-29.625,12.285-59.432,22.08-91.098,25.265c-0.727,0.073-1.379,0.245-1.939,0.516c-4.653,2.252-3.611,10.9-1.989,13.782 c8.465,15.042,32.58,19.37,48.434,18.025c7.682-0.651,15.187-1.892,22.155-4.108c3.347-1.065,6.633-1.937,9.878-3.204 c3.402-1.328,6.742-2.736,10.017-4.233c6.485-2.966,12.714-6.288,18.659-10.036c5.827-3.673,11.383-7.756,16.639-12.289 c5.371-4.632,10.986-9.624,15.122-15.636c0.015-0.021,0.03-0.043,0.044-0.066c0.079-0.143,0.112-0.345,0.212-0.687 c-1.244,0.716-4.146,0.294-5.556,0.314c-7.807,0.112-15.673,0.42-23.436,1.297c-4.044,0.457-8.079,1.05-12.069,1.75 c-1.994,0.349-3.98,0.728-5.955,1.135c-0.649,0.134-5.301,1.523-5.654,1.253c-0.67-0.511,0.307-0.73,0.802-1.002 c2.624-1.439,4.893-2.972,7.839-4.009c3.009-1.059,6.127-1.928,9.305-2.648c6.308-1.427,12.824-2.259,19.347-2.831 c5.31-0.465,10.632-0.762,15.935-1.11c5.064-0.331,10.61-0.25,15.52-1.43c-1.518-2.185-3.083-3.153-5.603-4.228 C474.491,135.701,466.761,135.179,459.112,135.498z"/> <path d="M259.679,141.494c9.349,3.584,18.12,7.94,26.294,13.556c3.855,2.65,7.713,5.842,11.256,8.835 c6.709,5.668,13.872,11.652,22.255,14.803c0.197,0.074,0.451,0.065,1.075,0.147c-1.854-6.738-0.653-12.681,7.907-15.569 c-11.261-9.77-17.324-28.979-23.688-42.147c-1.344-2.779-2.854-5.737-5.55-7.73c-5.591-4.133-16.194,1.068-21.098,3.934 c-5.194,3.036-10.412,6.162-14.479,10.961c-1.883,2.222-3.934,4.364-5.688,6.756C255.712,138.11,256.375,140.227,259.679,141.494 z"/> <path d="M309.746,117.208c3.594,7.344,7.196,14.882,10.879,22.278c1.6,3.212,2.67,6.579,4.01,9.829 c0.207,0.5,0.588,1.546,1.201,1.69c0.566-1.49-0.097-3.945-0.193-5.542c-0.116-1.905-0.256-3.812-0.448-5.721 c-0.378-3.737-0.957-7.481-1.931-11.199c-0.234-0.896-0.491-1.79-0.771-2.68c-1.993-6.372-5.086-12.601-8.812-18.709 c-3.317-5.438-9.326-11.817-7.858-18.248c0.024-0.104,0.042-0.214,0.072-0.317c0.293-2.812,1.427-5.276,2.635-7.718 c3.387,0.906,3.649,3.771,3.678,6.236c0.071,6.261,3.113,12.449,6.451,18.105c2.025,3.433,4.184,6.775,5.94,10.22 c1.761,3.451,2.453,6.777,3.512,10.291c0.576-0.691,1.167-1.314,1.649-1.984c2.642-3.676,4.906-7.438,3.7-12.062 c-0.671-2.572-1.636-5.128-2.569-7.699c-1.222-3.363-3.167-6.613-3.981-10.098c-0.775-3.323-0.725-6.734,0.196-9.863 c0.864-2.94,2.492-5.614,4.707-7.811c1.106-1.099,2.362-2.08,3.742-2.923c1.189-0.726,2.162-1.042,2.603-2.269 c-3.049-0.648-6.221-1.838-9.276-1.814c-4.961,0.038-9.736,0.896-14.6,1.243c-1.592,0.113-3.298-0.216-5.681-0.414 c1.017-0.647,1.406-1.052,1.935-1.206c5.413-1.584,10.836-3.204,16.351-4.639c6.228-1.621,13.173-0.65,19.842,1.524 c5.724,1.866,10.15,5.323,15.688,7.272c0.81,0.285,6.994,1.549,11.553,2.004c2.818,0.281,5.018,0.266,4.915-0.343 c-2.401-14.233-23.382-16.797-34.81-18.412c-12.698-1.794-25.576-3.153-38.43-3.122c-8.902,0.021-15.054,7.877-15.615,16.152 c-0.607,8.928,2.562,17.869,7.018,25.655C301.293,102.337,306.021,109.596,309.746,117.208z"/> <path d="M301.829,52.761c1.559-0.248,3.191-0.273,4.853-0.186c-0.1-0.018-0.201-0.032-0.302-0.049 c-0.304-0.053-0.606-0.09-0.903-0.125c-1.246,0.037-2.461,0.063-3.637,0.249c-3.165,0.501-5.443,2.284-7.124,4.67 c-0.031,0.061-0.066,0.117-0.098,0.179C296.307,55.05,298.607,53.271,301.829,52.761z"/> <path d="M149.935,354.668c0.009,0.008,0.019,0.007,0.028,0.014c0.674,0.35,1.383,0.648,2.12,0.889 c4.264,1.396,8.283,2.932,12.129,4.537c0.017,0.007,0.026,0.007,0.033,0.014c0.299,0.091,0.597,0.19,0.892,0.283 c6.928,2.181,13.298,5.171,18.778,8.468c0.063,0.038,0.133,0.074,0.199,0.112c6.22,3.603,12.157,7.515,15.486,15.126 c0.33,0.755,0.659,1.507,0.993,2.274c0.005,0.011,0.008,0.032,0.021,0.043c6.411,11.841,11.039,24.673,16.544,36.9 c5.021,11.152,16.279,21.836,28.954,19.081c8.788-1.91,17.664-5.251,26.533-8.041c-0.057-0.466-0.11-0.917-0.165-1.379 c-6.665-5.483-13.584-11.006-19.366-17.175c-13.098-13.978-25.127-29.674-33.334-47.588c-3.303-7.211-5.973-14.464-8.215-21.795 c-2.27-7.418-3.648-14.894-6.568-21.44c-0.795-1.785-1.561-3.953-5.38-3.089c-12.057,2.729-23.613,6.722-34.305,12.328 c-6.246,3.275-12.851,7.345-17.128,12.716c-0.013,0.01-0.016,0.02-0.017,0.027c-0.966,1.68-1.337,3.37-0.845,4.781 C147.745,352.975,148.757,353.907,149.935,354.668z"/> <path d="M333.883,204.086c-9.757-6.16-21.39-11.212-33.128-7.19c-11.656,3.994-20.897,13.836-30.062,22.241 c-10.056,9.222-20.479,17.614-32.07,24.418c-4.67,2.742-10.443,5.319-14.051,9.158c-8.025,8.541-5.136,21.529,5.069,27.468 c0.496,0.288,1.07,0.574,1.678,0.724c5.29,1.294,10.447,2.544,15.203,4.114c4.303,1.422,8.3,3.111,12.093,4.848 c2.65,1.212,5.071,2.633,7.798,4.157c0.339-0.902,0.585-1.302,0.61-1.694c0.722-10.997-0.003-22.863-1.802-33.471 c-0.512-3.018-0.729-6.538,1.061-8.883c2.275-2.979,7.483-3.318,12.183-1.803c4.554,1.471,8.208,5.455,12.446,6.823 c4.27,1.38,8.441-0.283,10.726-2.808c3.071-3.394,3.794-8.698,5.564-13.312c2.282-5.946,6.323-10.538,11.623-12.572 c6.741-2.587,11.793,0.797,19.368,3.725c2.969,1.147,6.004,1.309,8.21-0.563C356.519,220.882,340.195,208.069,333.883,204.086z"/> <path d="M348.525,248.146c-5.211-4.688-10.959-5.541-16.567-7.232c-6.721-2.027-12.712-0.778-16.491,4.444 c-4.302,5.943-5.862,7.174-0.627,15.401c1.852,2.908,3.959,5.548,5.8,8.282c-0.087,0.14-0.183,0.276-0.277,0.412 c-4.127-2.797-8.386-5.58-13.012-8.453c-1.258,0.96-2.827,2.124-4.769,3.438c8.089,5.937,15.899,12.17,24.056,18.014 c-0.149-2.962-0.232-4.979-0.541-6.995c-0.919-6.02-0.819-11.647,3.415-15.601c1.905-1.777,4.096-3.426,6.446-4.246 c4.826-1.683,9.872-2.887,15.227-4.707C350.246,249.92,349.415,248.947,348.525,248.146z"/> <path d="M381.403,269.278c0.443-1.555,0.745-3.119,0.248-3.852c-0.013-0.015-0.019-0.026-0.032-0.031 c-2.675-0.804-5.432-0.948-8.142-1.743c-3.189-0.936-6.326-2.289-9.509-3.087c-9.054-2.272-19.3-1.48-27.46,3.104 c-2.074,1.166-3.942,3.058-4.915,5.583c-1.266,3.284-0.891,7.355,0.533,10.608c2.995,6.839,9.749,9.963,15.634,11.271 c1.783,0.396,3.768,0.565,5.405-0.582c1.849-1.296,2.75-4.191,2.175-6.611c-0.575-2.421-2.441-4.229-4.489-4.717 c-3.349-0.799-5.718,1.569-8.224,3.72c-0.073-1.453,0.493-2.897,1.33-3.977c0.836-1.08,1.922-1.834,3.037-2.458 c2.944-1.646,6.226-2.5,9.518-2.354c2.271,0.101,4.708,0.781,6.239,2.896c1.148,1.586,1.626,3.885,1.231,5.987 c-0.494,2.63-2.579,4.766-4.113,6.483c-0.012,0.013-0.015,0.021-0.019,0.029c-0.408,1.114,0.193,1.578,1.122,1.733 c0.006,0.003,0.022,0,0.044-0.001c0.004,0.011,0.016-0.003,0.022,0c4.081-0.257,8.222-1.127,12.418-1.899 c2.788-0.513,9.338-0.089,8.354-5.936c-0.187-1.106-0.618-2.102-0.937-3.169c-0.657-2.204-0.807-4.757-0.502-7.31 C380.473,272.119,380.997,270.702,381.403,269.278z"/> <path d="M287.23,309.588c-1.719,1.78-3.101,3.42-1.676,5.947c2.345,4.156,3.931,8.647,5.472,13.149 c1.053,3.077,1.579,3.119,5.206,1.866c5.688-1.964,11.461-3.531,17.223-4.785c6.942-1.511,13.968-2.342,20.873-4.06 c5.553-1.38,11.268-3.389,16.483-5.675c9.529-4.178,17.089-9.411,24.321-16.817c1.611-1.65,2.506-4.155,3.526-6.404 c-0.831,1.83-10.319,3.04-11.974,3.318c-4.181,0.705-8.308,0.94-12.333,0.747c-8.032-0.386-15.95-2.433-23.301-5.704 c-16.432-7.316-29.358-20.276-42.682-31.949c-3.531-3.094-9.813-3.57-11.719-0.919c-1.936,2.692-2.922,5.833-2.304,9.414 c0.825,4.766,0.929,9.387,0.847,13.87c-0.106,5.838-0.604,11.482-1.286,17.022c-0.06,0.484-0.041,1.094,0.282,1.451 c2.728,3.003,5.507,5.886,7.98,9.237c8.952-8.538,9.481-20.593,5.744-31.702c3.077,3.554,5.688,7.048,7.682,10.646 c2.741,4.947,2.225,9.829-1.322,14.216C292.233,304.986,289.564,307.171,287.23,309.588z M287.605,266.71 c1.933,1.45,4.068,2.72,5.572,4.381c7.186,7.941,14.381,16.09,22.652,22.947c6.719,5.57,14.562,9.787,22.823,12.586 c3.434,1.163,7.153,1.707,11.283,2.547c-4.392,3.767-9.066,4.163-13.093,3.867c-5.51-0.405-11.371-1.409-15.953-3.784 c-7.859-4.075-14.49-10.636-18.113-18.765C298.929,281.859,293.248,274.352,287.605,266.71z"/> <path d="M298.169,338.472c0.073-0.014,0.146-0.029,0.219-0.047c1.63-0.379,3.287-1.358,4.848-1.972 c5.917-2.324,12.236-4.217,18.443-4.964c5.471-0.659,11.144,0.203,16.66,0.197c13.354-0.014,25.508-2.911,36.364-9.294 c8.6-5.057,15.529-14.244,20.729-23.276c2.874-4.99,5.579-10.655,5.897-16.458c0.299-5.462-6.375-18.797-12.004-12.864 c-3.613,3.809-1.539,13.734-2.733,18.107c-2.246,8.228-7.015,15.681-13.361,21.311c-8.915,7.907-20.466,12.187-32.027,14.663 c-8.298,1.777-16.799,3.439-24.931,5.221c-7.445,1.631-15.422,3.744-20.947,9.574 C295.597,338.345,297.71,338.562,298.169,338.472z"/> <path d="M363.193,355.305c2.498-4.649,8.019-14.935,5.503-19.609c-1.113-2.066-2.718-0.707-5.479-0.232 c-10.038,1.723-20.605,1.093-30.936,0.948c-6.6-0.092-36.448,2.859-33.94,9.691c2.672,7.281,12.347,16.7,19.225,24.451 c2.427,2.735,5.518,5.296,8.839,7.004c3.188,1.639,6.626,2.489,10.106,2.061c4.84-0.597,8.959-3.504,12.568-6.686 C354.816,367.872,359.695,361.812,363.193,355.305z"/> <path d="M339.086,391.831c-33.406-19.642-44.872-50.269-67.151-80.848c-2.603-3.015-5.551-6.125-8.858-8.684 c-8.455-6.541-17.325-10.973-27.51-14.308c-12.087-3.957-25.182-4.222-37.703-2.642c-4.942,0.624-8.521,1.758-12.54,4.318 c8.491,2.125,17.238,3.35,25.701,5.163c8.086,1.733,15.7,3.896,22.504,6.275c7.607,2.661,15.104,6.155,21.622,10.905 c2.981,2.173,5.615,4.601,7.83,7.22c2.169,2.564,3.111,5.438,4.399,8.435c0.243,0.565,0.985,1.306-0.094,1.596 c-0.57,0.153-3.91-3.743-4.443-4.208c-1.621-1.412-3.326-2.771-5.121-4.078c-3.588-2.616-7.598-5.202-11.874-7.198 c-9.382-4.381-19.291-7.334-29.525-9.658c-2.004-0.456-6.652-0.675-8.117-1.879c-0.062,0.45-0.139,0.711-0.109,0.909 c0.01,0.031,0.018,0.062,0.028,0.092c2.559,8.205,6.752,16.062,10.582,23.88c3.796,7.747,6.317,16.007,9.48,24.025 c3.438,8.713,7.462,17.169,11.833,25.315c2.297,4.281,5,8.688,7.987,13.475c2.851,4.567,6.076,8.508,9.459,12.905 c6.946,9.028,15.612,16.674,25.18,22.842c19.595,12.632,45.588,8.68,57.964-10.881c2.414-3.814,5.622-15.717,0.677-21.237 C340.688,392.901,339.928,392.325,339.086,391.831z"/> <path d="M467.047,368.206c-5.606-6.544-13.297-11.468-20.328-16.321c-8-5.522-18.743-13.271-28.882-10.216 c-4.859,1.465-8.97,4.707-12.726,7.574c-16.341,12.468-37.796,32.974-57.455,39.077c8.004,6.412,9.876,16.254,5.917,25.461 c0.868,0.177,1.218,0.309,1.499,0.293c12.339-0.688,23.886-6.026,35.32-10.206c6.404-2.34,13.358-4.719,20.845-6.845 c18.518-5.259,37.998-8.07,57.111-11.007c7.814-1.201,10.199-4.066,6.945-8.336C472.761,374.357,469.637,371.23,467.047,368.206z "/> <path d="M357.078,240.59c-0.16,1.228,2.352,2.534,5.647,3.649c5.331,1.803,12.707,3.089,13.709,3.009 c6.855-0.553,13.185-4.954,20.303-5.176c8.65-0.268,17.547,2.899,23.328,9.744c5.239,6.202,10.371,12.584,15.688,18.683 c0.492,0.563,0.686,1.502,1.421,3.17c-2.788-0.902-4.871-1.227-6.552-2.292c-5.138-3.261-9.839-7.644-15.243-10.65 c-3.328-1.853-7.391-1.345-11.011-1.798c-0.097,2.753,0.784,3.928,1.673,6.011c1.033,2.417,1.812,4.979,2.326,7.609 c1.027,5.264,0.98,10.815-0.179,16.182c-1.233,5.711-3.721,11.188-7.075,15.909c-3.519,4.953-8.195,8.979-12.047,12.821 c-2.943,2.938-5.973,5.733-8.774,8.592c-5.036,5.139-6.059,10.564-6.33,15.994c-0.051,0.991,0.063,1.975,0.114,3.025 c4.031-3.519,7.516-7.076,12.175-10.454c4.652-3.373,9.591-6.646,14.356-10.161c8.518-6.283,16.33-14.35,20.966-23.929 c1.867-3.859,4.131-8.469,8.525-8.466c-0.366,4.522-0.858,8.892-2.607,13.361c-0.042,0.17-0.099,0.355-0.152,0.518 c-3.438,10.443-14.032,16.994-22.707,22.956c-8.301,5.705-16.731,12.237-24.485,18.854c-1.024,0.874-2.03,1.81-3.009,2.725 c-4.062,3.8-7.678,7.727-10.934,11.761c-1.663,2.059-3.23,4.147-4.724,6.265c-1.252,1.774-3.72,4.27-4.035,6.295 c0.816,0.143,1.965-0.887,2.547-1.363c3.783-3.104,7.481-6.428,11.775-9.333c10.161-6.878,20.182-13.959,29.98-21.356 c10.672-8.056,21.664-15.864,31.571-24.592c11.139-9.811,21.473-22.315,26.013-36.809c3.891-12.419,2.064-29.41-9.407-36.85 c-14.717-9.546-31.014-17.552-47.942-23.308C382.652,214.614,360.328,215.692,357.078,240.59z"/> <path d="M460.607,259.806c-0.003-0.124-0.014-0.24-0.017-0.363c-0.688-5.071-2.463-9.786-5.952-13.014 c-1.295-1.198-2.718-2.152-4.175-3.161c-0.368-0.155-0.746-0.313-1.13-0.441c-0.125-0.041-0.253-0.093-0.381-0.134 c2.008,1.089,3.927,2.363,5.645,3.951C458.143,249.921,459.946,254.634,460.607,259.806z"/> </g> </g> </g> </g>
</svg>