<!DOCTYPE svg PUBLIC "-//W3C//DTD SVG 1.1//EN" "http://www.w3.org/Graphics/SVG/1.1/DTD/svg11.dtd">
<!-- Uploaded to: SVG Repo, www.svgrepo.com, Transformed by: SVG Repo Mixer Tools -->
<svg height="256px" width="256px" version="1.1" id="Layer_1" xmlns="http://www.w3.org/2000/svg" xmlns:xlink="http://www.w3.org/1999/xlink" viewBox="0 0 512.00 512.00" xml:space="preserve" fill="#000000" stroke="#000000" stroke-width="0.0051199900000000005">
<g id="SVGRepo_bgCarrier" stroke-width="0"/>
<g id="SVGRepo_tracerCarrier" stroke-linecap="round" stroke-linejoin="round"/>
<g id="SVGRepo_iconCarrier"> <path style="fill:#FFD1CF;" d="M225.609,51.015l25.009-15.235c-4.034-16.392-13.709-27.944-25.009-27.944 c-11.3,0-20.974,11.551-25.009,27.944L225.609,51.015z"/> <path style="fill:#FFC0BB;" d="M215.784,116.778c-20.658,0-37.462-16.58-37.462-36.958V27.109c0-1.673,1.375-3.028,3.07-3.028 l91.504,55.739c0,20.378-16.805,36.958-37.462,36.958C235.434,116.778,215.784,116.778,215.784,116.778z"/> <path style="fill:#FFAA9F;" d="M235.434,116.778c20.658,0,37.463-16.58,37.463-36.958V27.109c0-1.673-1.375-3.028-3.07-3.028 L178.321,79.82c0,20.378,16.805,36.958,37.462,36.958C215.783,116.778,235.434,116.778,235.434,116.778z"/> <path style="fill:#FF9783;" d="M212.099,171.946c-28.403,0-51.51-22.794-51.51-50.815V48.657c0-2.3,1.891-4.165,4.223-4.165 l125.817,76.64c0,28.02-23.106,50.815-51.509,50.815h-27.021V171.946z"/> <path style="fill:#5D9341;" d="M239.119,171.946h-27.02c-5.708,0-11.195-0.935-16.331-2.633c1.384,14.136,13.459,25.19,28.153,25.19 h3.377c14.693,0,26.768-11.054,28.153-25.19C250.315,171.011,244.827,171.946,239.119,171.946z"/> <path style="fill:#FF8676;" d="M239.119,171.946c28.403,0,51.509-22.794,51.509-50.815V48.657c0-2.3-1.89-4.165-4.221-4.165 l-125.818,76.64c0,28.02,23.107,50.815,51.51,50.815h27.02V171.946z"/> <path style="opacity:0.1;enable-background:new ;" d="M261.022,160.892h-27.02c-28.403,0-51.51-22.794-51.51-50.815V55.26 l-17.68-10.77c-2.331,0-4.223,1.865-4.223,4.165v72.474c0,28.02,23.107,50.815,51.51,50.815h27.02 c12.865,0,24.633-4.686,33.67-12.407C269.007,160.414,265.071,160.892,261.022,160.892z"/> <path style="fill:#FFDEDE;" d="M289.222,142.565l22.747-13.856c-3.67-14.91-12.47-25.417-22.747-25.417 c-10.278,0.001-19.077,10.507-22.747,25.417L289.222,142.565z"/> <path style="fill:#8EBA3F;" d="M202.687,258.647c-0.917,0.906-2.056,1.596-3.332,1.991c-18.628,5.746-38.762,0.87-52.543-12.726 c-13.782-13.599-18.726-33.459-12.899-51.835c0.399-1.259,1.099-2.381,2.018-3.287c0.918-0.906,2.057-1.597,3.333-1.992 c18.626-5.748,38.759-0.871,52.543,12.726c13.781,13.598,18.725,33.459,12.899,51.835 C204.307,256.616,203.607,257.741,202.687,258.647z"/> <path style="fill:#5D9341;" d="M301.51,252.557h-24.577c-5.191,0-10.183-0.85-14.853-2.395c1.26,12.859,12.241,22.914,25.606,22.914 h3.072c13.364,0,24.347-10.055,25.606-22.914C311.694,251.708,306.703,252.557,301.51,252.557z"/> <path id="SVGCleanerId_0" style="fill:#FFBAC5;" d="M301.51,252.557c25.834,0,46.85-20.733,46.85-46.219v-65.919 c0-2.092-1.72-3.789-3.84-3.789l-114.438,69.708c0,25.487,21.016,46.219,46.851,46.219L301.51,252.557L301.51,252.557z"/> <path style="fill:#FFBAC5;" d="M280.285,202.379c-18.788,0-34.073-15.081-34.073-33.615V120.82c0-1.521,1.251-2.754,2.793-2.754 l83.226,50.697c0,18.534-15.285,33.615-34.072,33.615H280.285z"/> <path style="fill:#FFDEDE;" d="M298.159,202.379c18.787,0,34.073-15.081,34.073-33.615V120.82c0-1.521-1.251-2.754-2.793-2.754 l-83.227,50.697c-0.001,18.534,15.285,33.615,34.073,33.615H298.159z"/> <path style="fill:#FFCCCC;" d="M276.934,252.557c-25.835,0-46.851-20.733-46.851-46.219l0.001-65.919 c-0.001-2.092,1.719-3.789,3.84-3.789l114.437,69.708c0,25.487-21.017,46.219-46.85,46.219L276.934,252.557L276.934,252.557z"/> <g> <path id="SVGCleanerId_0_1_" style="fill:#FFBAC5;" d="M301.51,252.557c25.834,0,46.85-20.733,46.85-46.219v-65.919 c0-2.092-1.72-3.789-3.84-3.789l-114.438,69.708c0,25.487,21.016,46.219,46.851,46.219L301.51,252.557L301.51,252.557z"/> </g> <path style="fill:#8EBA3F;" d="M309.312,304.278c-0.92-0.906-1.619-2.03-2.018-3.289c-5.825-18.377-0.883-38.239,12.899-51.834 c13.782-13.597,33.914-18.474,52.542-12.726c1.277,0.394,2.415,1.086,3.333,1.991s1.619,2.029,2.018,3.289 c5.827,18.376,0.884,38.237-12.899,51.834c-13.781,13.596-33.914,18.473-52.543,12.726 C311.369,305.874,310.23,305.184,309.312,304.278z"/> <path style="fill:#E0CDB8;" d="M195.443,366.143c-5.747,0-10.165,4.694-9.818,10.429l7.092,117.161 c0.347,5.735,5.333,10.429,11.08,10.429h119.33c5.747,0,10.733-4.694,11.08-10.429l7.092-117.161 c0.347-5.735-4.071-10.429-9.818-10.429H195.443z"/> <path style="fill:#E84731;" d="M263.462,469.637c-1.321,0-2.588-0.523-3.523-1.454l-34.384-34.319 c-4.86-4.845-7.538-11.29-7.538-18.145c0-6.856,2.678-13.299,7.538-18.147c4.86-4.847,11.323-7.517,18.198-7.517 s13.338,2.671,18.199,7.517l1.51,1.507l1.511-1.507c4.861-4.847,11.324-7.517,18.199-7.517c6.873,0,13.337,2.671,18.198,7.517 c4.86,4.847,7.537,11.292,7.537,18.147s-2.677,13.301-7.537,18.148l-34.383,34.315C266.053,469.113,264.784,469.637,263.462,469.637 z"/> <path style="fill:#C7B299;" d="M365.276,355.694c0,5.747-4.702,10.449-10.449,10.449H172.097c-5.747,0-10.449-4.702-10.449-10.449 v-46.248c0-5.747,4.702-10.449,10.449-10.449h182.731c5.747,0,10.449,4.702,10.449,10.449V355.694z"/> <path style="opacity:0.1;enable-background:new ;" d="M183.354,355.694v-46.248c0-5.747,4.702-10.449,10.449-10.449h-21.707 c-5.747,0-10.449,4.702-10.449,10.449v46.248c0,5.747,4.702,10.449,10.449,10.449h21.707 C188.056,366.143,183.354,361.441,183.354,355.694z"/> <path d="M283.172,382.217c-7.178,0-14.014,2.234-19.71,6.372c-5.695-4.138-12.53-6.372-19.709-6.372 c-8.963,0-17.391,3.483-23.732,9.805c-6.347,6.328-9.842,14.743-9.842,23.696c0,8.953,3.495,17.368,9.839,23.692l34.39,34.324 c2.421,2.412,5.636,3.74,9.054,3.74c3.422,0,6.639-1.329,9.06-3.745l34.382-34.314c6.345-6.33,9.839-14.745,9.839-23.696 c0-8.952-3.494-17.367-9.84-23.697C300.562,385.699,292.135,382.217,283.172,382.217z M295.835,428.319l-32.372,32.307 l-32.375-32.313c-3.375-3.365-5.234-7.838-5.234-12.595s1.859-9.232,5.235-12.598c3.381-3.373,7.879-5.23,12.664-5.23 c4.786,0,9.283,1.857,12.662,5.227l1.51,1.507c3.058,3.054,8.012,3.054,11.072,0.002l1.51-1.506c3.382-3.373,7.881-5.23,12.666-5.23 c4.785,0,9.282,1.857,12.664,5.23c3.375,3.367,5.234,7.84,5.234,12.598C301.069,420.475,299.211,424.951,295.835,428.319z"/> <path d="M370.691,299.123c15.892-15.678,21.588-38.585,14.867-59.779c-0.776-2.451-2.156-4.701-3.989-6.508 c-1.822-1.795-4.077-3.142-6.522-3.897c-5.848-1.803-11.902-2.719-17.992-2.719c-1.606,0-3.198,0.079-4.784,0.202 c2.529-6.211,3.927-12.988,3.927-20.085v-65.922c-0.001-6.409-5.24-11.623-11.677-11.623c-1.289,0-2.55,0.334-3.683,0.939v-8.912 c0-5.84-4.769-10.591-10.63-10.591c-1.438,0-2.848,0.396-4.077,1.144l-9.729,5.926c-0.916-2.13-1.942-4.16-3.083-6.059 c-4.036-6.721-9.142-11.431-14.854-13.868V48.656c0-6.618-5.409-12.002-12.058-12.002c-1.438,0-2.848,0.396-4.076,1.144 l-0.753,0.459V27.109c0-5.99-4.893-10.865-10.907-10.865c-1.438,0-2.848,0.396-4.077,1.144l-11.467,6.985 C249.01,9.621,238.191,0,225.609,0c-12.582,0-23.4,9.621-29.517,24.372l-11.467-6.985c-1.229-0.748-2.638-1.144-4.077-1.144 c-6.014,0-10.908,4.874-10.908,10.865v11.147l-0.752-0.458c-1.229-0.748-2.638-1.144-4.077-1.144c-6.65,0-12.06,5.383-12.06,12.002 v72.474c0,0.771,0.024,1.539,0.06,2.302c0.022,0.565,0.055,1.127,0.093,1.689c0,0.002,0,0.003,0,0.005 c1.538,22.456,15.92,41.474,35.924,49.94c3.379,13.702,14.757,24.327,28.944,26.746v60.708l-5.428-5.355 c6.443-21.041,0.716-43.683-15.034-59.221c-11.344-11.192-26.39-17.355-42.364-17.355c-6.091,0-12.144,0.915-17.997,2.721 c-2.447,0.758-4.701,2.105-6.52,3.899c-1.831,1.806-3.209,4.052-3.985,6.499c-6.721,21.197-1.024,44.104,14.867,59.783 c11.342,11.191,26.389,17.354,42.365,17.354c5.94,0,11.844-0.877,17.565-2.596l16.533,16.324v6.587h-45.676 c-10.082,0-18.286,8.204-18.286,18.286v46.248c0,10.082,8.203,18.286,18.286,18.286h5.52l7.277,120.228 c0.593,9.812,9.073,17.793,18.902,17.793h119.33c9.829,0,18.309-7.982,18.903-17.793l1.551-25.62 c0.262-4.321-3.028-8.034-7.349-8.295c-4.322-0.255-8.034,3.028-8.295,7.349l-1.551,25.619c-0.097,1.605-1.65,3.067-3.258,3.067 H203.797c-1.608,0-3.161-1.461-3.258-3.067l-7.22-119.28h92.308c4.328,0,7.837-3.508,7.837-7.837s-3.509-7.837-7.837-7.837h-113.53 c-1.416,0-2.612-1.196-2.612-2.612v-46.248c0-1.416,1.196-2.612,2.612-2.612h182.731c1.416,0,2.612,1.196,2.612,2.612v46.248 c0,1.416-1.196,2.612-2.612,2.612h-35.764c-4.328,0-7.837,3.508-7.837,7.837s3.509,7.837,7.837,7.837h14.541l-3.897,64.404 c-0.261,4.321,3.028,8.034,7.349,8.295c4.327,0.271,8.034-3.028,8.295-7.349l3.955-65.351h5.52c10.082,0,18.286-8.203,18.286-18.286 v-46.248c0-3.632-1.077-7.011-2.91-9.86C370.365,299.431,370.531,299.281,370.691,299.123z M199.038,244.039l-18.169-17.924 c-3.082-3.042-8.043-3.007-11.082,0.074c-3.04,3.081-3.006,8.043,0.075,11.083l17.931,17.703c-1.37,0.125-2.744,0.196-4.12,0.196 c-11.83,0-22.967-4.559-31.357-12.838c-11.675-11.519-15.864-28.336-10.883-43.965c0.026-0.025,0.074-0.062,0.142-0.083 c4.35-1.343,8.848-2.023,13.371-2.023c11.828,0,22.966,4.559,31.357,12.839C195.749,218.421,200.289,231.213,199.038,244.039z M340.525,148.24v58.098c0,10.191-4.066,19.46-10.676,26.339c-4.724,2.388-9.149,5.402-13.159,9.02 c-4.668,1.947-9.797,3.025-15.178,3.025h-24.577c-20.049,0-36.615-14.957-38.776-34.125L340.525,148.24z M274.158,170.314 l-36.238,22.073l0.001-44.147L274.158,170.314z M253.281,139.245v-8.93l20.877,12.717l-7.329,4.464L253.281,139.245z M325.165,130.315v8.93l-35.941,21.893l-7.329-4.464L325.165,130.315z M289.222,111.128c3.652,0,7.537,2.982,10.661,8.183 c1.128,1.879,2.114,3.985,2.946,6.258l-13.606,8.288l-13.529-8.242C278.68,117.314,283.521,111.129,289.222,111.128z M225.609,15.673c5.896,0,12.221,6.453,15.933,16.973l-15.933,9.706l-15.934-9.706C213.387,22.127,219.713,15.673,225.609,15.673z M185.314,36.16l25.23,15.369l-9.557,5.821l-15.675-9.548V36.16H185.314z M168.425,55.869l42.119,25.656l-42.119,25.656 L168.425,55.869L168.425,55.869z M222.247,186.596c-5.512-0.441-10.396-3.045-13.801-6.937c1.21,0.073,2.425,0.123,3.654,0.123 h10.148v6.814H222.247z M222.247,140.419v23.691h-10.148c-22.617,0-41.272-17.007-43.459-38.706l71.955-43.83 c3.696-2.252,4.867-7.074,2.615-10.77c-2.252-3.697-7.072-4.868-10.77-2.616l-6.832,4.162l-9.557-5.821l49.851-30.367v11.643 l-6.296,3.835c-3.697,2.252-4.868,7.074-2.616,10.77c2.251,3.696,7.072,4.867,10.77,2.616l15.03-9.155v40.513 c-8.734,2.55-16.106,10.215-20.74,20.922l-9.737-5.932c-1.229-0.748-2.638-1.144-4.077-1.144c-5.861,0-10.63,4.751-10.63,10.591 v8.912c-1.134-0.605-2.395-0.939-3.684-0.939c-3.099,0-6.018,1.196-8.219,3.369C223.474,134.361,222.247,137.294,222.247,140.419z M281.386,291.16h-47.94v-52.101c5.635,7.295,13.101,13.143,21.717,16.854c3.196,12.378,13.435,21.989,26.223,24.404V291.16z M302.494,260.896c-3.141,2.697-7.24,4.343-11.735,4.343h-3.072c-4.79,0-9.133-1.865-12.342-4.885c0.53,0.016,1.056,0.04,1.589,0.04 h24.577c0.411,0,0.815-0.021,1.223-0.03C302.65,260.539,302.576,260.72,302.494,260.896z M359.684,287.966 c-1.179,1.163-2.42,2.24-3.702,3.253c-0.383-0.024-0.765-0.059-1.155-0.059h-21.06l8.37-8.257c3.081-3.04,3.115-8.001,0.075-11.083 c-3.04-3.08-8.003-3.114-11.082-0.074l-18.193,17.948c-1.244-12.806,3.297-25.625,12.76-34.961 c8.393-8.28,19.528-12.839,31.357-12.839c4.522,0,9.021,0.68,13.37,2.023c0.07,0.022,0.117,0.059,0.191,0.16 C375.548,259.631,371.359,276.447,359.684,287.966z"/> <g style="opacity:0.1;"> <path d="M195.443,366.143c-5.747,0-10.165,4.694-9.818,10.43l7.092,117.16c0.347,5.736,5.333,10.43,11.08,10.43h0.809 c5.747,0,10.165-4.694,9.818-10.43l-7.092-117.16c-0.347-5.736-5.333-10.43-11.08-10.43H195.443z"/> </g> <path style="opacity:0.1;enable-background:new ;" d="M323.414,241.503h-24.577c-25.835,0-46.851-20.733-46.851-46.219 l0.001-47.652l-18.063-11.003c-2.12,0-3.84,1.697-3.84,3.789l-0.001,65.919c0,25.487,21.016,46.219,46.851,46.219h24.577 c12.116,0,23.171-4.56,31.496-12.032C329.91,241.163,326.701,241.503,323.414,241.503z"/> </g>
</svg>