<!DOCTYPE svg PUBLIC "-//W3C//DTD SVG 1.1//EN" "http://www.w3.org/Graphics/SVG/1.1/DTD/svg11.dtd">
<!-- Uploaded to: SVG Repo, www.svgrepo.com, Transformed by: SVG Repo Mixer Tools -->
<svg width="800px" height="800px" viewBox="0 0 64 64" xmlns="http://www.w3.org/2000/svg" fill="#000000" stroke="#000000" stroke-width="0.64">
<g id="SVGRepo_bgCarrier" stroke-width="0"/>
<g id="SVGRepo_tracerCarrier" stroke-linecap="round" stroke-linejoin="round"/>
<g id="SVGRepo_iconCarrier"> <defs> <style>.cls-1{fill:#ccc;}.cls-2{fill:#f2f2f2;}.cls-3{fill:#849eb4;}.cls-4{fill:#b0d3f0;}.cls-5{fill:#c69c6d;}.cls-6{fill:#98856e;}.cls-7{fill:#cbb292;}.cls-8{fill:#5f443e;}.cls-9{fill:#7f5b53;}.cls-10{fill:#e64c3c;}.cls-11{fill:#f0c419;}.cls-12{fill:#559264;}.cls-13{fill:#71c285;}.cls-14{fill:#ad392d;}</style> </defs> <title/> <g data-name="Layer 32" id="Layer_32"> <rect class="cls-1" height="40" width="56" x="4" y="18"/> <rect class="cls-2" height="40" width="53" x="4" y="18"/> <rect class="cls-3" height="20" width="34" x="26" y="28"/> <rect class="cls-4" height="20" width="31" x="26" y="28"/> <rect class="cls-5" height="6" width="2" x="52" y="42"/> <rect class="cls-5" height="6" width="2" x="42" y="42"/> <rect class="cls-5" height="6" width="2" x="32" y="42"/> <rect class="cls-6" height="6" width="34" x="26" y="52"/> <rect class="cls-7" height="6" width="31" x="26" y="52"/> <rect class="cls-8" height="4" width="34" x="26" y="48"/> <rect class="cls-9" height="4" width="31" x="26" y="48"/> <path class="cls-10" d="M30,36l3,3,3-3v4a3,3,0,0,1-3,3h0a3,3,0,0,1-3-3Z"/> <path class="cls-11" d="M40,36l3,3,3-3v4a3,3,0,0,1-3,3h0a3,3,0,0,1-3-3Z"/> <path class="cls-10" d="M50,36l3,3,3-3v4a3,3,0,0,1-3,3h0a3,3,0,0,1-3-3Z"/> <rect class="cls-6" height="4" width="14" x="8" y="30"/> <polyline class="cls-7" points="8 58 8 38 22 38 22 58"/> <rect class="cls-8" height="4" width="60" x="2" y="58"/> <rect class="cls-9" height="4" width="57" x="2" y="58"/> <rect class="cls-12" height="10" width="60" x="2" y="8"/> <rect class="cls-13" height="10" width="57" x="2" y="8"/> <circle class="cls-3" cx="32" cy="13" r="11"/> <ellipse class="cls-4" cx="30.5" cy="13" rx="9.5" ry="10.89"/> <path class="cls-14" d="M26,12V8l3,3,3-3,3,3,3-3v4a6,6,0,0,1-6,6h0A6,6,0,0,1,26,12Z"/> <path class="cls-10" d="M32,12l-3,3-3-3a6,6,0,0,0,12,0l-3,3Z"/> <path class="cls-7" d="M31,24c.33,0,.66.05,1,.05s.67,0,1-.05V18H31Z"/> <line class="cls-14" x1="33" x2="36" y1="39" y2="36"/> <rect class="cls-6" height="6" width="2" x="17" y="45"/> </g> </g>
</svg>