<!DOCTYPE svg PUBLIC "-//W3C//DTD SVG 1.1//EN" "http://www.w3.org/Graphics/SVG/1.1/DTD/svg11.dtd">
<!-- Uploaded to: SVG Repo, www.svgrepo.com, Transformed by: SVG Repo Mixer Tools -->
<svg height="800px" width="800px" version="1.1" id="_x32_" xmlns="http://www.w3.org/2000/svg" xmlns:xlink="http://www.w3.org/1999/xlink" viewBox="0 0 512 512" xml:space="preserve" fill="#000000">
<g id="SVGRepo_bgCarrier" stroke-width="0"/>
<g id="SVGRepo_tracerCarrier" stroke-linecap="round" stroke-linejoin="round"/>
<g id="SVGRepo_iconCarrier"> <style type="text/css"> .st0{fill:#f9b4b4;} </style> <g> <path class="st0" d="M164.608,309.819c8.365-70.001,34.527-136.401,73.912-187.636c-37.333-41.464-85.662-69.772-142.471-75.884 c0,0,21.299,65.158-31.062,207.593C0.99,427.841,121.144,500.18,200.442,502.068c-11.413-13.007-20.553-29.133-27.052-47.986 C160.57,416.865,157.614,368.328,164.608,309.819z"/> <path class="st0" d="M448.358,253.878c-52.383-142.426-31.083-207.578-31.083-207.578 C292.172,59.8,208.175,180.835,192.378,313.132c-13.608,113.962,13.673,173.533,59.428,192.242 C328.7,536.838,522.979,456.765,448.358,253.878z"/> <path class="st0" d="M256.676,100.618c17.425-18.938,36.536-34.835,57.046-47.49C298.922,33.652,279.812,14.677,255.37,0 c-24.003,14.405-42.856,32.927-57.512,52.038C219.014,64.879,238.728,81.12,256.676,100.618z"/> </g> </g>
</svg>